<svg width="32" height="32" viewBox="0 0 32 32" fill="none" xmlns="http://www.w3.org/2000/svg">
<circle cx="16" cy="16" r="16" fill="#3B99FC"/>
<path fill-rule="evenodd" clip-rule="evenodd" d="M22.2993 11.9384C18.8203 8.46497 13.1797 8.46497 9.7007 11.9384L9.24114 12.3973C9.06719 12.5709 9.06719 12.8525 9.24114 13.0262L10.6734 14.4562C10.7604 14.5431 10.9014 14.5431 10.9884 14.4562L11.6055 13.8402C14.0325 11.417 17.9675 11.417 20.3946 13.8402L20.9707 14.4154C21.0577 14.5023 21.1987 14.5023 21.2857 14.4154L22.718 12.9854C22.892 12.8117 22.892 12.5301 22.718 12.3565L22.2993 11.9384ZM26.5362 16.1686L25.2614 14.8959C25.0875 14.7222 24.8055 14.7222 24.6315 14.8959L20.552 18.9689C20.5085 19.0123 20.438 19.0123 20.3945 18.9689L16.3149 14.8958L16.3149 14.8958C16.1409 14.7221 15.8589 14.7221 15.685 14.8958L11.6056 18.9689C11.5621 19.0123 11.4916 19.0123 11.4481 18.9689L7.36848 14.8958C7.19453 14.7221 6.9125 14.7221 6.73855 14.8958L5.46379 16.1685C5.28984 16.3422 5.28984 16.6238 5.46379 16.7975L11.2119 22.5364C11.3859 22.7101 11.6679 22.7101 11.8418 22.5364L15.9213 18.4634C15.9648 18.4199 16.0353 18.4199 16.0788 18.4634L20.1583 22.5364C20.3323 22.7101 20.6143 22.7101 20.7882 22.5364L26.5362 16.7975C26.7101 16.6238 26.7101 16.3423 26.5362 16.1686Z" fill="white"/>
</svg>
